# xmcd
#
# Track frame offsets:
#	150
#	16765
#	35787
#	54732
#	71970
#	89937
#	107117
#	131852
#	149415
#	168487
#	183535
#	201797
#	218730
#	239572
#	255195
#	279960
#
# Disc length: 4072 seconds
#
# Revision: 2
# Processed by: cddbd v1.5.2PL0 Copyright (c) Steve Scherf et al.
# Submitted via: EZCDAudioConverter 9.0.5.1
#
DISCID=fc0fe610
DTITLE=中島みゆき - 中島みゆき THE BEST (86年盤 D32A0155) DE-Magnetic (EZ 9.0-WAV)
DYEAR=1986
DGENRE=World Pop
TTITLE0=アザミ嬢のララバイ
TTITLE1=時代
TTITLE2=こんばんわ
TTITLE3=夜風の中から
TTITLE4=わかれうた
TTITLE5=おもいで河
TTITLE6=りばいばる
TTITLE7=かなしみ笑い
TTITLE8=ひとり上手
TTITLE9=あした天気になれ
TTITLE10=悪女
TTITLE11=誘惑
TTITLE12=横恋慕
TTITLE13=あの娘
TTITLE14=ひとり
TTITLE15=孤独の肖像
EXTD=
EXTT0=
EXTT1=
EXTT2=
EXTT3=
EXTT4=
EXTT5=
EXTT6=
EXTT7=
EXTT8=
EXTT9=
EXTT10=
EXTT11=
EXTT12=
EXTT13=
EXTT14=
EXTT15=
PLAYORDER=
